# xmcd
#
# Track frame offsets:
#	183
#	49200
#	62858
#	71833
#	85168
#	103013
#	112675
#	124850
#	143520
#	165843
#	181303
#	192790
#	221668
#	229375
#	245818
#	261060
# Disc length: 3637 seconds
# Revision: 1
# Processed by: cddbd v1.5.2PL0 Copyright (c) Steve Scherf et al.
#
# Submitted via: libkcddb 0.31
#
DISCID=e30e3310
DTITLE=Simion Stanciu "Syrinx" - L´ Art de la Flute de Pan
DYEAR=1990
DGENRE=Chamber Music
TTITLE0=01 Saraste Airs Behémiens
TTITLE1=02 Didmitrscue Danse Paysanne
TTITLE2=03 Folklore L´Alouette
TTITLE3=04 Bartok 2 Romänische Tänze
TTITLE4=05 Graf Winter
TTITLE5=06 Dinicu Hora Staccato
TTITLE6=07 Bach Badinerie
TTITLE7=08 Mozart Kleine Nachtmusik
TTITLE8=09 Veracini Largo
TTITLE9=10 Dvorak MUmoresque
TTITLE10=11 Boccherini Menuet
TTITLE11=12 Monti Csardas
TTITLE12=13 Corelli Adagio
TTITLE13=14 Kreisler Liebesfreud
TTITLE14=15 Kreisler Liebesleid
TTITLE15=16 Kreisler Schön Rosmarin
EXTD=
EXTT0=
EXTT1=
EXTT2=
EXTT3=
EXTT4=
EXTT5=
EXTT6=
EXTT7=
EXTT8=
EXTT9=
EXTT10=
EXTT11=
EXTT12=
EXTT13=
EXTT14=
EXTT15=
PLAYORDER=
